<?xml version="1.0" standalone="no"?>
<!DOCTYPE svg PUBLIC "-//W3C//DTD SVG 20010904//EN"
 "http://www.w3.org/TR/2001/REC-SVG-20010904/DTD/svg10.dtd">
<svg version="1.0" xmlns="http://www.w3.org/2000/svg"
 width="400.000000pt" height="400.000000pt" viewBox="0 0 400.000000 400.000000"
 preserveAspectRatio="xMidYMid meet">
<metadata>
Created by potrace 1.14, written by Peter Selinger 2001-2017
</metadata>
<g transform="translate(0.000000,400.000000) scale(0.100000,-0.100000)"
fill="#000000" stroke="none">
<path d="M411 3724 l36 -36 -25 -47 c-14 -25 -73 -127 -132 -226 -59 -99 -134
-232 -168 -296 l-62 -116 0 -329 c0 -378 -10 -361 93 -158 53 105 62 125 105
224 111 256 208 629 227 870 1 19 3 36 4 38 0 2 46 -34 101 -79 l99 -81 -5
-42 c-5 -33 -31 -175 -70 -386 -25 -136 -57 -334 -68 -430 -3 -25 -8 -65 -11
-90 -3 -25 -8 -67 -10 -95 -3 -27 -8 -88 -12 -135 -8 -88 -9 -495 -2 -985 5
-360 -3 -438 -64 -652 -23 -79 -1 -64 42 30 141 305 313 835 356 1097 3 19 10
58 15 85 5 28 12 77 16 110 4 33 8 68 10 78 17 95 25 540 12 677 -18 186 -112
578 -163 683 -7 15 -11 27 -9 27 3 0 38 -23 79 -51 41 -28 112 -72 157 -98 68
-39 83 -52 89 -77 3 -17 7 -163 8 -325 4 -504 20 -905 47 -1179 17 -164 87
-397 172 -565 30 -62 127 -222 142 -235 3 -3 21 -25 40 -50 78 -102 230 -241
230 -211 0 6 -16 36 -35 68 -35 58 -89 187 -107 253 -5 19 -13 51 -18 70 -16
60 -20 135 -25 470 -3 179 -7 350 -10 380 -4 60 -14 167 -20 215 -24 194 -30
236 -55 351 -42 198 -156 489 -260 663 -28 46 -50 85 -50 86 0 2 63 -26 139
-61 77 -35 151 -66 165 -70 15 -3 28 -9 30 -13 3 -4 12 -56 20 -116 23 -159
23 -159 46 -285 12 -63 25 -131 30 -150 5 -19 11 -46 14 -60 24 -131 161 -652
222 -845 72 -226 186 -436 354 -655 92 -119 315 -342 440 -441 92 -72 203
-149 216 -149 3 0 -17 25 -45 55 -95 104 -181 248 -259 430 -65 154 -90 234
-152 485 -115 466 -200 722 -335 1007 -88 186 -238 429 -369 598 -30 38 -53
71 -51 73 2 2 45 -9 97 -26 51 -16 130 -39 175 -52 76 -21 83 -25 92 -54 118
-382 180 -551 298 -821 126 -287 297 -623 384 -755 45 -69 85 -127 88 -130 3
-3 24 -27 46 -55 220 -277 610 -594 825 -670 l44 -16 -64 58 c-168 152 -315
396 -503 833 -172 400 -296 628 -514 943 -81 117 -309 397 -377 463 -6 5 -44
44 -85 86 l-73 76 153 -42 c85 -24 186 -51 225 -60 l72 -18 62 -146 c118 -276
298 -607 489 -897 36 -55 68 -102 71 -105 3 -3 25 -34 49 -70 57 -83 195 -263
241 -314 128 -144 163 -180 244 -260 87 -84 287 -257 307 -264 5 -2 9 79 9
198 l0 202 -40 76 c-22 41 -63 112 -91 156 -28 45 -56 90 -62 101 -7 10 -58
89 -114 175 -263 400 -574 726 -995 1044 -65 48 -118 89 -118 91 0 2 8 1 18
-1 9 -2 140 -33 291 -69 150 -35 275 -65 276 -67 1 -2 26 -48 55 -103 178
-339 350 -572 652 -880 l127 -130 1 287 0 288 -99 78 c-129 102 -308 226 -474
329 -72 45 -141 89 -152 97 -22 16 196 -45 450 -126 121 -39 173 -60 212 -90
29 -21 55 -38 58 -38 3 0 5 36 5 79 l0 80 -27 -5 c-16 -3 -44 -9 -63 -13 -27
-6 -61 0 -145 25 -109 32 -110 33 -60 35 28 1 55 2 60 3 50 8 111 20 168 33
l67 15 0 70 0 70 -87 -7 c-48 -4 -95 -9 -106 -11 -10 -1 -55 -6 -100 -9 -45
-3 -98 -8 -117 -10 -19 -2 -64 -7 -100 -10 -36 -3 -105 -13 -153 -22 -88 -15
-88 -15 -207 13 -66 16 -120 32 -120 35 0 4 30 4 68 0 37 -3 114 -6 172 -6
113 0 163 15 300 89 111 59 417 272 407 283 -2 2 -91 -19 -198 -47 -294 -75
-626 -139 -809 -155 -36 -3 -85 -7 -110 -10 -25 -2 -80 -7 -122 -10 -43 -3
-102 -10 -131 -15 -54 -8 -79 -5 -207 26 -41 10 -79 17 -85 15 -5 -1 -6 1 -2
5 4 5 38 9 75 10 132 5 355 41 485 79 121 35 406 152 670 274 49 23 90 41 92
41 2 0 43 18 92 41 109 51 223 104 243 113 20 8 -2 4 -230 -50 -234 -55 -448
-104 -525 -120 -16 -3 -75 -16 -130 -29 -55 -13 -237 -53 -405 -90 -483 -104
-564 -123 -641 -148 l-72 -25 -96 33 c-90 30 -281 105 -281 109 0 1 42 3 93 3
119 2 136 4 287 49 258 76 470 135 975 269 77 20 196 53 265 71 69 19 168 46
220 60 52 14 120 33 150 41 30 9 62 18 71 19 8 2 26 8 40 14 17 7 -36 9 -191
5 -118 -3 -231 -7 -250 -9 -19 -3 -71 -7 -115 -11 -44 -3 -93 -8 -110 -10 -16
-3 -84 -12 -150 -20 -125 -16 -173 -23 -215 -31 -14 -3 -59 -11 -100 -19 -291
-54 -519 -125 -795 -247 -99 -43 -212 -89 -250 -100 l-70 -21 -90 45 -89 45
54 12 c158 33 369 123 486 206 77 56 187 115 304 164 41 18 84 36 95 41 11 5
41 16 68 26 26 9 47 18 47 20 0 9 -415 -84 -615 -137 -349 -94 -469 -141 -540
-214 -47 -48 -33 -50 -140 14 -31 18 -54 35 -52 38 3 2 25 6 50 8 100 10 237
51 338 101 90 45 281 173 274 184 -3 5 -11 7 -18 5 -7 -2 -55 -6 -107 -9 -52
-3 -104 -8 -115 -10 -11 -2 -47 -7 -80 -10 -33 -4 -67 -9 -76 -12 -10 -2 -30
-6 -45 -8 -68 -9 -209 -48 -259 -71 -30 -15 -65 -39 -79 -55 l-24 -29 -26 20
-26 21 30 34 c16 19 41 57 55 84 l25 50 -120 0 c-137 0 -137 1 -68 -82 22 -27
36 -48 31 -48 -4 0 -39 29 -78 65 -70 64 -70 64 -130 65 l-60 0 36 -36z"/>
</g>
</svg>
